<svg width="900" height="900" viewBox="0 0 900 900" fill="none" xmlns="http://www.w3.org/2000/svg" role="img" aria-labelledby="title desc">
  <title id="title">Cute student portrait illustration</title>
  <desc id="desc">A smiling young student holding a book and laptop with small academic details.</desc>
  <rect width="900" height="900" rx="120" fill="#FFF8EE"/>
  <circle cx="210" cy="170" r="48" fill="#F4A8B6" opacity=".45"/>
  <circle cx="720" cy="155" r="72" fill="#BFE6D0" opacity=".75"/>
  <circle cx="755" cy="675" r="54" fill="#F3C969" opacity=".7"/>
  <path d="M146 707c60-100 154-153 282-158 142-6 246 45 312 153 17 27 0 62-31 62H176c-31 0-47-31-30-57Z" fill="#2D8F86"/>
  <path d="M270 727c26-88 83-142 172-146 95-5 160 44 195 146H270Z" fill="#236A67"/>
  <path d="M336 576c34 41 74 62 121 62 45 0 82-20 112-59l-17-82H354l-18 79Z" fill="#F3C3A8"/>
  <path d="M354 525c30 29 63 43 99 43 38 0 72-15 101-45l-5-27H359l-5 29Z" fill="#E6A987"/>
  <path d="M269 340c0-113 76-196 181-196 107 0 186 83 186 198v101c0 112-77 203-183 203-107 0-184-91-184-203V340Z" fill="#F8D1B8"/>
  <path d="M247 378c-7-118 48-244 190-263 112-15 210 43 229 148 17 97-32 189-32 189-11-73-31-123-62-152-71 50-173 57-285 22-22 31-35 74-40 130 0 0-2-30 0-74Z" fill="#32261F"/>
  <path d="M279 321c97 37 201 25 287-35" stroke="#46362D" stroke-width="22" stroke-linecap="round"/>
  <path d="M319 420c19-18 43-18 62 0" stroke="#352820" stroke-width="13" stroke-linecap="round"/>
  <path d="M515 420c19-18 43-18 62 0" stroke="#352820" stroke-width="13" stroke-linecap="round"/>
  <circle cx="350" cy="458" r="13" fill="#352820"/>
  <circle cx="546" cy="458" r="13" fill="#352820"/>
  <circle cx="309" cy="501" r="28" fill="#F29AA5" opacity=".45"/>
  <circle cx="591" cy="501" r="28" fill="#F29AA5" opacity=".45"/>
  <path d="M425 470c-10 25-20 49-29 72 14 10 32 11 50 2" stroke="#D69178" stroke-width="10" stroke-linecap="round" stroke-linejoin="round"/>
  <path d="M396 568c37 32 75 32 114 0" stroke="#C85F69" stroke-width="14" stroke-linecap="round"/>
  <path d="M264 441c-36 0-61 27-55 62 6 34 35 56 69 49" fill="#F3C3A8"/>
  <path d="M636 441c36 0 61 27 55 62-6 34-35 56-69 49" fill="#F3C3A8"/>
  <path d="M322 659c-50 15-87 43-111 85h146l19-104-54 19Z" fill="#D86F57"/>
  <path d="M578 659c50 15 87 43 111 85H543l-19-104 54 19Z" fill="#D86F57"/>
  <path d="M334 638c43 41 84 62 123 62 38 0 75-21 112-62l19 33c-32 59-76 88-132 88-57 0-104-29-141-88l19-33Z" fill="#FFF8EE"/>
  <rect x="160" y="596" width="238" height="163" rx="20" transform="rotate(-7 160 596)" fill="#F3C969"/>
  <rect x="177" y="617" width="199" height="16" rx="8" transform="rotate(-7 177 617)" fill="#FFF8EE" opacity=".8"/>
  <rect x="183" y="662" width="150" height="13" rx="6.5" transform="rotate(-7 183 662)" fill="#FFF8EE" opacity=".64"/>
  <rect x="187" y="697" width="112" height="13" rx="6.5" transform="rotate(-7 187 697)" fill="#FFF8EE" opacity=".64"/>
  <rect x="510" y="611" width="240" height="150" rx="18" transform="rotate(6 510 611)" fill="#24302F"/>
  <rect x="535" y="637" width="190" height="90" rx="10" transform="rotate(6 535 637)" fill="#BFE6D0"/>
  <path d="M587 682l30-22 28 37 42-54" stroke="#24302F" stroke-width="12" stroke-linecap="round" stroke-linejoin="round"/>
  <path d="M204 256h-55a24 24 0 0 1-24-24v-12a24 24 0 0 1 24-24h55" stroke="#2D8F86" stroke-width="18" stroke-linecap="round"/>
  <path d="M704 257h55a24 24 0 0 0 24-24v-12a24 24 0 0 0-24-24h-55" stroke="#D86F57" stroke-width="18" stroke-linecap="round"/>
  <path d="M164 326c26 12 54 12 82 0" stroke="#F3C969" stroke-width="14" stroke-linecap="round"/>
  <path d="M657 329c26 12 54 12 82 0" stroke="#F3C969" stroke-width="14" stroke-linecap="round"/>
</svg>
